<svg width="259" height="94" xmlns="http://www.w3.org/2000/svg" xml:space="preserve" version="1.1">

 <g>
  <title>Layer 1</title>
  <g id="svg_1">
   <path id="svg_2" fill="#52BDEA" d="m151.88,90.28c-16.12,0 -29.19,-19.3 -29.19,-43.1c0,-23.8 13.07,-43.1 29.19,-43.1c6.12,0 11.8,2.79 16.49,7.54c-5.61,-7.23 -12.95,-11.62 -20.99,-11.62c-17.65,0 -31.95,21.12 -31.95,47.18s14.31,47.18 31.95,47.18c8.04,0 15.37,-4.39 20.99,-11.62c-4.69,4.75 -10.37,7.54 -16.49,7.54z" class="st0"/>
   <g id="svg_3">
    <path id="svg_4" fill="#2C364C" d="m32.81,30.16l0,42.83c0,0.63 -0.19,0.81 -0.75,0.81l-1.32,0c-0.44,0 -0.63,-0.06 -0.88,-0.5l-22.22,-31.68c-2.07,-2.94 -3.76,-6.32 -5.07,-8.14l-0.13,0c0,2.38 0.38,6.39 0.38,10.33l0,29.18c0,0.63 -0.19,0.81 -0.75,0.81l-1.26,0c-0.63,0 -0.81,-0.19 -0.81,-0.81l0,-42.83c0,-0.63 0.19,-0.81 0.81,-0.81l1.25,0c0.5,0 0.75,0.25 0.88,0.44l21.6,30.87c2.32,3.32 4.26,6.83 5.76,8.95l0.13,0c0,-2.76 -0.44,-6.95 -0.44,-11.27l0,-28.24c0,-0.56 0.19,-0.75 0.81,-0.75l1.25,0c0.57,0 0.76,0.19 0.76,0.81z" class="st1"/>
    <path id="svg_5" fill="#2C364C" d="m76.15,73.81l-1.13,0c-0.94,0 -1.25,-0.13 -1.38,-0.69l-5.57,-13.84l-20.79,0l-5.51,13.84c-0.19,0.56 -0.5,0.69 -1.44,0.69l-1.06,0c-0.63,0 -0.75,-0.31 -0.56,-0.75l17.35,-43.27c0.25,-0.56 0.5,-0.75 1.06,-0.75l1.25,0c0.56,0 0.88,0.19 1.06,0.75l17.35,43.27c0.18,0.44 0.06,0.75 -0.63,0.75zm-18.41,-41.89l-0.19,0c0,0.31 -0.06,1.44 -0.5,2.69l-8.89,22.23l19.1,0l-8.9,-22.23c-0.44,-1.25 -0.56,-2.38 -0.62,-2.69z" class="st1"/>
    <path id="svg_6" fill="#2C364C" d="m111.53,30.1l-16.72,42.96c-0.19,0.56 -0.5,0.75 -1.06,0.75l-1.19,0c-0.63,0 -0.88,-0.19 -1.06,-0.69l-16.73,-43.02c-0.19,-0.44 -0.06,-0.75 0.5,-0.75l1.19,0c0.94,0 1.19,0.12 1.38,0.69l13.9,36.01c0.56,1.57 1.06,3.38 1.38,4.2l0.19,0c0.31,-0.81 0.75,-2.57 1.32,-4.2l13.84,-36.01c0.19,-0.56 0.5,-0.69 1.38,-0.69l1.19,0c0.61,0 0.68,0.31 0.49,0.75z" class="st1"/>
   </g>
   <g id="svg_7">
    <path id="svg_8" fill="#2C364C" d="m156.32,63.79c4.32,0 6.51,-2.07 6.51,-5.76l0,-26.05c0,-1.94 0.63,-2.63 2.63,-2.63l7.08,0c2,0 2.69,0.69 2.69,2.63l0,25.49c0,10.52 -6.51,17.28 -18.91,17.28c-12.34,0 -18.85,-6.76 -18.85,-17.28l0,-25.49c0,-1.94 0.63,-2.63 2.63,-2.63l7.08,0c2,0 2.69,0.69 2.69,2.63l0,26.05c0,3.69 2.13,5.76 6.45,5.76zm-1.88,-42.77l0,0.81c0,3.32 -1.13,4.45 -4.63,4.45l-0.44,0c-3.51,0 -4.51,-1.13 -4.51,-4.45l0,-0.81c0,-3.38 1,-4.45 4.51,-4.45l0.44,0c3.51,0 4.63,1.07 4.63,4.45zm13.41,0l0,0.81c0,3.32 -1.06,4.45 -4.57,4.45l-0.44,0c-3.44,0 -4.57,-1.13 -4.57,-4.45l0,-0.81c0,-3.38 1.13,-4.45 4.57,-4.45l0.44,0c3.5,0 4.57,1.07 4.57,4.45z" class="st1"/>
    <path id="svg_9" fill="#2C364C" d="m217.25,45c0,9.89 -6.33,15.47 -16.03,15.47l-7.7,0l0,10.71c0,1.94 -0.63,2.63 -2.63,2.63l-7.08,0c-2,0 -2.69,-0.69 -2.69,-2.63l0,-39.2c0,-1.94 0.69,-2.63 2.69,-2.63l17.28,0c9.78,0 16.16,5.7 16.16,15.65zm-12.83,-0.06c0,-2.76 -1.75,-4.63 -4.7,-4.63l-6.2,0l0,9.21l6.2,0c2.94,-0.01 4.7,-1.82 4.7,-4.58z" class="st1"/>
    <path id="svg_10" fill="#2C364C" d="m239.86,28.41c12.34,0 19.22,6.7 19.22,17.53l0,11.27c0,10.83 -6.89,17.53 -19.22,17.53c-12.4,0 -19.29,-6.7 -19.29,-17.53l0,-11.27c0,-10.83 6.89,-17.53 19.29,-17.53zm0,10.96c-4.38,0 -6.89,2.07 -6.89,6.01l0,12.4c0,3.95 2.5,6.01 6.89,6.01c4.32,0 6.83,-2.07 6.83,-6.01l0,-12.4c0,-3.95 -2.51,-6.01 -6.83,-6.01z" class="st1"/>
   </g>
  </g>
 </g>
</svg>